<svg xmlns="http://www.w3.org/2000/svg" xmlns:xlink="http://www.w3.org/1999/xlink" version="1.1" width="256" height="256" viewBox="0 0 256 256" xml:space="preserve">

<defs>
</defs>
<g style="stroke: none; stroke-width: 0; stroke-dasharray: none; stroke-linecap: butt; stroke-linejoin: miter; stroke-miterlimit: 10; fill: none; fill-rule: nonzero; opacity: 1;" transform="translate(1.4065934065934016 1.4065934065934016) scale(2.81 2.81)" >
	<path d="M 89.666 58.257 c 0.877 2.158 -0.023 4.65 -2.102 5.702 C 71.569 72.05 52.328 86.573 44.953 86.573 c -0.382 0.029 -0.765 0.042 -1.146 0.042 c -3.338 0 -6.635 -1.03 -9.834 -2.029 c -3.511 -1.097 -7.139 -2.231 -10.735 -1.962 l -8.906 0.664 v -27.34 l 4.856 -0.362 c 3.008 -0.228 5.539 0.76 7.975 1.715 c 2.28 0.893 4.432 1.733 6.906 1.566 l 15.902 -2.426 c 5.707 -0.822 8.847 1.939 10.76 4.469 l 23.778 -5.36 C 86.66 55.074 88.838 56.218 89.666 58.257 L 89.666 58.257 z" style="stroke: none; stroke-width: 1; stroke-dasharray: none; stroke-linecap: butt; stroke-linejoin: miter; stroke-miterlimit: 10; fill: rgb(238,198,179); fill-rule: nonzero; opacity: 1;" transform=" matrix(1 0 0 1 0 0) " stroke-linecap="round" />
	<path d="M 33.575 70.257 c 8.947 1.271 19.698 -2.219 26.27 -6.178 c 1.087 -0.654 1.475 -2.045 0.888 -3.169 v 0 C 59.59 64.231 43.075 68.65 33.575 70.257 z" style="stroke: none; stroke-width: 1; stroke-dasharray: none; stroke-linecap: butt; stroke-linejoin: miter; stroke-miterlimit: 10; fill: rgb(205,149,123); fill-rule: nonzero; opacity: 1;" transform=" matrix(1 0 0 1 0 0) " stroke-linecap="round" />
	<path d="M 87.479 60.653 C 70.924 68.745 51.01 83.268 43.377 83.268 c -0.396 0.029 -0.791 0.042 -1.186 0.042 c -3.455 0 -6.867 -1.03 -10.178 -2.029 c -3.634 -1.097 -7.388 -2.231 -11.11 -1.962 l -6.57 0.473 v 3.496 l 8.906 -0.664 c 3.596 -0.268 7.224 0.866 10.735 1.962 c 3.199 0.999 6.496 2.029 9.834 2.029 c 0.381 0 0.763 -0.013 1.146 -0.042 c 7.375 0 26.616 -14.523 42.611 -22.615 c 2.067 -1.046 2.966 -3.516 2.113 -5.666 C 89.279 59.284 88.527 60.141 87.479 60.653 z" style="stroke: none; stroke-width: 1; stroke-dasharray: none; stroke-linecap: butt; stroke-linejoin: miter; stroke-miterlimit: 10; fill: rgb(205,149,123); fill-rule: nonzero; opacity: 1;" transform=" matrix(1 0 0 1 0 0) " stroke-linecap="round" />
	<path d="M 16.1 87.441 H 2.791 C 1.25 87.441 0 86.192 0 84.65 V 51.652 c 0 -1.541 1.25 -2.791 2.791 -2.791 H 16.1 c 1.541 0 2.791 1.25 2.791 2.791 V 84.65 C 18.891 86.192 17.641 87.441 16.1 87.441 z" style="stroke: none; stroke-width: 1; stroke-dasharray: none; stroke-linecap: butt; stroke-linejoin: miter; stroke-miterlimit: 10; fill: rgb(52,57,54); fill-rule: nonzero; opacity: 1;" transform=" matrix(1 0 0 1 0 0) " stroke-linecap="round" />
	<path d="M 16.1 48.861 h -1.372 c 0.012 0.104 0.031 0.205 0.031 0.312 v 32.998 c 0 1.541 -1.25 2.791 -2.791 2.791 H 0.031 c 0.157 1.392 1.325 2.479 2.76 2.479 H 16.1 c 1.541 0 2.791 -1.25 2.791 -2.791 V 51.652 C 18.891 50.111 17.641 48.861 16.1 48.861 z" style="stroke: none; stroke-width: 1; stroke-dasharray: none; stroke-linecap: butt; stroke-linejoin: miter; stroke-miterlimit: 10; fill: rgb(46,50,47); fill-rule: nonzero; opacity: 1;" transform=" matrix(1 0 0 1 0 0) " stroke-linecap="round" />
	<circle cx="50.436" cy="38.426" r="13.616" style="stroke: none; stroke-width: 1; stroke-dasharray: none; stroke-linecap: butt; stroke-linejoin: miter; stroke-miterlimit: 10; fill: rgb(191,134,0); fill-rule: nonzero; opacity: 1;" transform="  matrix(1 0 0 1 0 0) "/>
	<circle cx="52.386" cy="38.426" r="13.616" style="stroke: none; stroke-width: 1; stroke-dasharray: none; stroke-linecap: butt; stroke-linejoin: miter; stroke-miterlimit: 10; fill: rgb(234,165,0); fill-rule: nonzero; opacity: 1;" transform="  matrix(1 0 0 1 0 0) "/>
	<circle cx="52.391999999999996" cy="38.422" r="9.732" style="stroke: none; stroke-width: 1; stroke-dasharray: none; stroke-linecap: butt; stroke-linejoin: miter; stroke-miterlimit: 10; fill: rgb(255,179,0); fill-rule: nonzero; opacity: 1;" transform="  matrix(1 0 0 1 0 0) "/>
	<path d="M 52.387 19.685 c -0.553 0 -1 -0.448 -1 -1 V 2.559 c 0 -0.552 0.447 -1 1 -1 s 1 0.448 1 1 v 16.126 C 53.387 19.237 52.939 19.685 52.387 19.685 z" style="stroke: none; stroke-width: 1; stroke-dasharray: none; stroke-linecap: butt; stroke-linejoin: miter; stroke-miterlimit: 10; fill: rgb(182,195,187); fill-rule: nonzero; opacity: 1;" transform=" matrix(1 0 0 1 0 0) " stroke-linecap="round" />
	<path d="M 62.387 22.685 c -0.553 0 -1 -0.448 -1 -1 V 5.559 c 0 -0.552 0.447 -1 1 -1 s 1 0.448 1 1 v 16.126 C 63.387 22.237 62.939 22.685 62.387 22.685 z" style="stroke: none; stroke-width: 1; stroke-dasharray: none; stroke-linecap: butt; stroke-linejoin: miter; stroke-miterlimit: 10; fill: rgb(182,195,187); fill-rule: nonzero; opacity: 1;" transform=" matrix(1 0 0 1 0 0) " stroke-linecap="round" />
	<path d="M 42.387 22.685 c -0.552 0 -1 -0.448 -1 -1 V 5.559 c 0 -0.552 0.448 -1 1 -1 s 1 0.448 1 1 v 16.126 C 43.387 22.237 42.939 22.685 42.387 22.685 z" style="stroke: none; stroke-width: 1; stroke-dasharray: none; stroke-linecap: butt; stroke-linejoin: miter; stroke-miterlimit: 10; fill: rgb(182,195,187); fill-rule: nonzero; opacity: 1;" transform=" matrix(1 0 0 1 0 0) " stroke-linecap="round" />
	<path d="M 55.438 39.387 c -0.538 -1.126 -1.871 -1.647 -2.971 -1.976 c -1.321 -0.394 -1.606 -0.734 -1.667 -0.861 c -0.04 -0.083 -0.022 -0.219 0.041 -0.373 c 0.197 -0.44 0.773 -0.747 1.401 -0.747 c 0.451 0 0.876 0.159 1.152 0.412 c 0.204 0.187 0.503 0.222 0.756 0.109 l 0.661 -0.296 c 0.437 -0.196 0.574 -0.765 0.257 -1.123 c -0.483 -0.547 -1.158 -0.934 -1.923 -1.109 v -0.781 c 0 -0.397 -0.322 -0.719 -0.719 -0.719 h -0.678 c -0.397 0 -0.719 0.322 -0.719 0.719 v 0.865 c -0.952 0.302 -1.736 0.949 -2.133 1.838 c -0.388 0.948 -0.217 1.675 -0.005 2.118 c 0.538 1.127 1.871 1.648 2.971 1.976 c 1.322 0.394 1.606 0.733 1.668 0.861 c 0.039 0.083 0.021 0.219 -0.041 0.373 c -0.197 0.44 -0.773 0.747 -1.401 0.747 c -0.451 0 -0.876 -0.159 -1.152 -0.411 c -0.204 -0.187 -0.503 -0.222 -0.755 -0.109 l -0.661 0.296 c -0.441 0.198 -0.571 0.771 -0.25 1.133 c 0.45 0.507 1.063 0.879 1.761 1.067 v 0.812 c 0 0.397 0.322 0.719 0.719 0.719 h 0.678 c 0.397 0 0.719 -0.322 0.719 -0.719 v -0.813 c 1.023 -0.277 1.868 -0.952 2.287 -1.89 C 55.821 40.558 55.65 39.831 55.438 39.387 z" style="stroke: none; stroke-width: 1; stroke-dasharray: none; stroke-linecap: butt; stroke-linejoin: miter; stroke-miterlimit: 10; fill: rgb(191,134,0); fill-rule: nonzero; opacity: 1;" transform=" matrix(1 0 0 1 0 0) " stroke-linecap="round" />
</g>
</svg>